<mxfile host="app.diagrams.net" agent="Mozilla/5.0 (Windows NT 10.0; Win64; x64) AppleWebKit/537.36 (KHTML, like Gecko) Chrome/132.0.0.0 Safari/537.36" version="26.0.12">
  <diagram id="prtHgNgQTEPvFCAcTncT" name="Page-1">
    <mxGraphModel grid="1" page="1" gridSize="10" guides="1" tooltips="1" connect="1" arrows="1" fold="1" pageScale="1" pageWidth="3300" pageHeight="4681" math="0" shadow="0">
      <root>
        <mxCell id="0" />
        <mxCell id="1" parent="0" />
        <mxCell id="dNxyNK7c78bLwvsdeMH5-19" value="Sets&lt;br&gt;" style="swimlane;html=1;childLayout=stackLayout;resizeParent=1;resizeParentMax=0;horizontal=0;startSize=20;horizontalStack=0;rounded=1;" vertex="1" parent="1">
          <mxGeometry x="90" y="100" width="2370" height="480" as="geometry" />
        </mxCell>
        <mxCell id="5bx6YXuGVPjFUvGlG12I-29" value="" style="edgeStyle=orthogonalEdgeStyle;rounded=1;orthogonalLoop=1;jettySize=auto;html=1;" edge="1" parent="dNxyNK7c78bLwvsdeMH5-19" source="5bx6YXuGVPjFUvGlG12I-26" target="5bx6YXuGVPjFUvGlG12I-28">
          <mxGeometry relative="1" as="geometry" />
        </mxCell>
        <mxCell id="5bx6YXuGVPjFUvGlG12I-44" value="" style="endArrow=classic;startArrow=classic;html=1;rounded=1;entryX=0.5;entryY=1;entryDx=0;entryDy=0;" edge="1" parent="dNxyNK7c78bLwvsdeMH5-19" source="5bx6YXuGVPjFUvGlG12I-35" target="5bx6YXuGVPjFUvGlG12I-37">
          <mxGeometry width="50" height="50" relative="1" as="geometry">
            <mxPoint x="960" y="270" as="sourcePoint" />
            <mxPoint x="960" y="190" as="targetPoint" />
            <Array as="points">
              <mxPoint x="955" y="230" />
              <mxPoint x="850" y="230" />
            </Array>
          </mxGeometry>
        </mxCell>
        <mxCell id="5bx6YXuGVPjFUvGlG12I-50" value="" style="edgeStyle=orthogonalEdgeStyle;rounded=1;orthogonalLoop=1;jettySize=auto;html=1;" edge="1" parent="dNxyNK7c78bLwvsdeMH5-19" source="5bx6YXuGVPjFUvGlG12I-46" target="5bx6YXuGVPjFUvGlG12I-49">
          <mxGeometry relative="1" as="geometry" />
        </mxCell>
        <mxCell id="KOkm-WaUwvO928opWfna-17" style="edgeStyle=orthogonalEdgeStyle;rounded=1;orthogonalLoop=1;jettySize=auto;html=1;exitX=0.5;exitY=1;exitDx=0;exitDy=0;entryX=0.5;entryY=0;entryDx=0;entryDy=0;" edge="1" parent="dNxyNK7c78bLwvsdeMH5-19" source="KOkm-WaUwvO928opWfna-8" target="KOkm-WaUwvO928opWfna-9">
          <mxGeometry relative="1" as="geometry" />
        </mxCell>
        <mxCell id="5bx6YXuGVPjFUvGlG12I-45" value="" style="endArrow=none;dashed=1;html=1;rounded=1;exitX=0;exitY=0.5;exitDx=0;exitDy=0;" edge="1" parent="dNxyNK7c78bLwvsdeMH5-19" source="KOkm-WaUwvO928opWfna-9">
          <mxGeometry width="50" height="50" relative="1" as="geometry">
            <mxPoint x="110" y="307.5" as="sourcePoint" />
            <mxPoint x="860" y="10" as="targetPoint" />
            <Array as="points">
              <mxPoint x="50" y="318" />
              <mxPoint x="50" y="198" />
              <mxPoint x="50" y="10" />
            </Array>
          </mxGeometry>
        </mxCell>
        <mxCell id="_WY_czb5OrWpqedojqzP-1" value="" style="endArrow=classic;startArrow=classic;html=1;rounded=1;exitX=1;exitY=0.5;exitDx=0;exitDy=0;" edge="1" parent="dNxyNK7c78bLwvsdeMH5-19" source="jr5bJzrvSQbN8pC3b32j-11" target="rgIxrNhpCXEa3y_r8Vri-2">
          <mxGeometry width="50" height="50" relative="1" as="geometry">
            <mxPoint x="1840" y="330" as="sourcePoint" />
            <mxPoint x="1840" y="275" as="targetPoint" />
            <Array as="points">
              <mxPoint x="1840" y="165" />
            </Array>
          </mxGeometry>
        </mxCell>
        <mxCell id="dNxyNK7c78bLwvsdeMH5-20" value="Residente" style="swimlane;html=1;startSize=20;horizontal=0;rounded=1;arcSize=0;" vertex="1" parent="dNxyNK7c78bLwvsdeMH5-19">
          <mxGeometry x="20" width="2350" height="240" as="geometry" />
        </mxCell>
        <mxCell id="dNxyNK7c78bLwvsdeMH5-25" value="" style="edgeStyle=orthogonalEdgeStyle;rounded=1;orthogonalLoop=1;jettySize=auto;html=1;" edge="1" parent="dNxyNK7c78bLwvsdeMH5-20" source="dNxyNK7c78bLwvsdeMH5-23">
          <mxGeometry relative="1" as="geometry">
            <mxPoint x="120" y="60" as="targetPoint" />
          </mxGeometry>
        </mxCell>
        <mxCell id="dNxyNK7c78bLwvsdeMH5-23" value="inicio" style="ellipse;whiteSpace=wrap;html=1;fillColor=#d5e8d4;strokeColor=#82b366;rounded=1;" vertex="1" parent="dNxyNK7c78bLwvsdeMH5-20">
          <mxGeometry x="40" y="40" width="40" height="40" as="geometry" />
        </mxCell>
        <mxCell id="5bx6YXuGVPjFUvGlG12I-1" value="Revisar el horario&amp;nbsp; de atencion" style="rounded=1;whiteSpace=wrap;html=1;" vertex="1" parent="dNxyNK7c78bLwvsdeMH5-20">
          <mxGeometry x="120" y="40" width="110" height="50" as="geometry" />
        </mxCell>
        <mxCell id="5bx6YXuGVPjFUvGlG12I-5" value="" style="edgeStyle=orthogonalEdgeStyle;rounded=1;orthogonalLoop=1;jettySize=auto;html=1;entryX=0;entryY=0.5;entryDx=0;entryDy=0;" edge="1" parent="dNxyNK7c78bLwvsdeMH5-20" source="KOkm-WaUwvO928opWfna-1" target="5bx6YXuGVPjFUvGlG12I-6">
          <mxGeometry relative="1" as="geometry" />
        </mxCell>
        <mxCell id="KOkm-WaUwvO928opWfna-1" value="Disponibilidad&lt;br&gt;" style="rhombus;whiteSpace=wrap;html=1;rounded=1;" vertex="1" parent="dNxyNK7c78bLwvsdeMH5-20">
          <mxGeometry x="300" y="30" width="100" height="70" as="geometry" />
        </mxCell>
        <mxCell id="KOkm-WaUwvO928opWfna-2" value="" style="endArrow=classic;startArrow=classic;html=1;rounded=1;" edge="1" parent="dNxyNK7c78bLwvsdeMH5-20" source="KOkm-WaUwvO928opWfna-1" target="5bx6YXuGVPjFUvGlG12I-1">
          <mxGeometry width="50" height="50" relative="1" as="geometry">
            <mxPoint x="510" y="310" as="sourcePoint" />
            <mxPoint x="175" y="80" as="targetPoint" />
          </mxGeometry>
        </mxCell>
        <mxCell id="KOkm-WaUwvO928opWfna-16" style="edgeStyle=orthogonalEdgeStyle;rounded=1;orthogonalLoop=1;jettySize=auto;html=1;exitX=0.5;exitY=0;exitDx=0;exitDy=0;entryX=0.5;entryY=1;entryDx=0;entryDy=0;" edge="1" parent="dNxyNK7c78bLwvsdeMH5-20" source="KOkm-WaUwvO928opWfna-8" target="KOkm-WaUwvO928opWfna-1">
          <mxGeometry relative="1" as="geometry" />
        </mxCell>
        <mxCell id="KOkm-WaUwvO928opWfna-8" value="No" style="text;html=1;align=center;verticalAlign=middle;whiteSpace=wrap;rounded=1;" vertex="1" parent="dNxyNK7c78bLwvsdeMH5-20">
          <mxGeometry x="220" y="160" width="60" height="30" as="geometry" />
        </mxCell>
        <mxCell id="5bx6YXuGVPjFUvGlG12I-3" value="Si" style="text;html=1;align=center;verticalAlign=middle;whiteSpace=wrap;rounded=1;" vertex="1" parent="dNxyNK7c78bLwvsdeMH5-20">
          <mxGeometry x="430" y="30" width="60" height="30" as="geometry" />
        </mxCell>
        <mxCell id="5bx6YXuGVPjFUvGlG12I-14" value="" style="edgeStyle=orthogonalEdgeStyle;rounded=1;orthogonalLoop=1;jettySize=auto;html=1;entryX=0.5;entryY=0;entryDx=0;entryDy=0;" edge="1" parent="dNxyNK7c78bLwvsdeMH5-20" source="5bx6YXuGVPjFUvGlG12I-6" target="5bx6YXuGVPjFUvGlG12I-26">
          <mxGeometry relative="1" as="geometry">
            <mxPoint x="630" y="110" as="targetPoint" />
          </mxGeometry>
        </mxCell>
        <mxCell id="5bx6YXuGVPjFUvGlG12I-6" value="Agendar cita&lt;br&gt;" style="rounded=1;whiteSpace=wrap;html=1;fillColor=#1ba1e2;fontColor=#ffffff;strokeColor=#006EAF;" vertex="1" parent="dNxyNK7c78bLwvsdeMH5-20">
          <mxGeometry x="570" y="20" width="120" height="50" as="geometry" />
        </mxCell>
        <mxCell id="5bx6YXuGVPjFUvGlG12I-26" value="esperar" style="ellipse;whiteSpace=wrap;html=1;aspect=fixed;rounded=1;" vertex="1" parent="dNxyNK7c78bLwvsdeMH5-20">
          <mxGeometry x="605" y="112" width="50" height="50" as="geometry" />
        </mxCell>
        <mxCell id="5bx6YXuGVPjFUvGlG12I-37" value="&lt;font style=&quot;font-size: 11px;&quot;&gt;pregunta&amp;nbsp;&lt;/font&gt;&lt;div&gt;&lt;font style=&quot;font-size: 11px;&quot;&gt;por cita en porterÃ­a&lt;/font&gt;&lt;/div&gt;" style="rhombus;whiteSpace=wrap;html=1;rounded=1;" vertex="1" parent="dNxyNK7c78bLwvsdeMH5-20">
          <mxGeometry x="790" y="95" width="80" height="85" as="geometry" />
        </mxCell>
        <mxCell id="5bx6YXuGVPjFUvGlG12I-38" value="Va a la cita" style="rounded=1;whiteSpace=wrap;html=1;" vertex="1" parent="dNxyNK7c78bLwvsdeMH5-20">
          <mxGeometry x="1000" y="107" width="120" height="60" as="geometry" />
        </mxCell>
        <mxCell id="5bx6YXuGVPjFUvGlG12I-40" value="" style="endArrow=classic;startArrow=classic;html=1;rounded=1;exitX=1;exitY=0.5;exitDx=0;exitDy=0;entryX=0;entryY=0.5;entryDx=0;entryDy=0;" edge="1" parent="dNxyNK7c78bLwvsdeMH5-20" source="5bx6YXuGVPjFUvGlG12I-26" target="5bx6YXuGVPjFUvGlG12I-37">
          <mxGeometry width="50" height="50" relative="1" as="geometry">
            <mxPoint x="730" y="170" as="sourcePoint" />
            <mxPoint x="780" y="120" as="targetPoint" />
          </mxGeometry>
        </mxCell>
        <mxCell id="5bx6YXuGVPjFUvGlG12I-41" value="No" style="text;html=1;align=center;verticalAlign=middle;whiteSpace=wrap;rounded=1;" vertex="1" parent="dNxyNK7c78bLwvsdeMH5-20">
          <mxGeometry x="770" y="40" width="60" height="30" as="geometry" />
        </mxCell>
        <mxCell id="5bx6YXuGVPjFUvGlG12I-43" value="" style="endArrow=classic;startArrow=classic;html=1;rounded=1;exitX=0.5;exitY=0;exitDx=0;exitDy=0;" edge="1" parent="dNxyNK7c78bLwvsdeMH5-20" source="5bx6YXuGVPjFUvGlG12I-37">
          <mxGeometry width="50" height="50" relative="1" as="geometry">
            <mxPoint x="570" y="-20" as="sourcePoint" />
            <mxPoint x="830" y="10" as="targetPoint" />
          </mxGeometry>
        </mxCell>
        <mxCell id="5bx6YXuGVPjFUvGlG12I-42" value="Si" style="text;html=1;align=center;verticalAlign=middle;whiteSpace=wrap;rounded=1;" vertex="1" parent="dNxyNK7c78bLwvsdeMH5-20">
          <mxGeometry x="900" y="100" width="60" height="30" as="geometry" />
        </mxCell>
        <mxCell id="5bx6YXuGVPjFUvGlG12I-46" value="Solicita actualizar datos" style="rounded=1;whiteSpace=wrap;html=1;" vertex="1" parent="dNxyNK7c78bLwvsdeMH5-20">
          <mxGeometry x="1180" y="105" width="120" height="60" as="geometry" />
        </mxCell>
        <mxCell id="jr5bJzrvSQbN8pC3b32j-3" value="" style="endArrow=classic;html=1;rounded=1;entryX=0;entryY=0.5;entryDx=0;entryDy=0;" edge="1" parent="dNxyNK7c78bLwvsdeMH5-20" source="5bx6YXuGVPjFUvGlG12I-38" target="5bx6YXuGVPjFUvGlG12I-46">
          <mxGeometry width="50" height="50" relative="1" as="geometry">
            <mxPoint x="1370" y="230" as="sourcePoint" />
            <mxPoint x="1170" y="140" as="targetPoint" />
          </mxGeometry>
        </mxCell>
        <mxCell id="jr5bJzrvSQbN8pC3b32j-11" value="Lo envÃ­a al administrador" style="whiteSpace=wrap;html=1;rounded=1;" vertex="1" parent="dNxyNK7c78bLwvsdeMH5-20">
          <mxGeometry x="1620" y="135" width="120" height="60" as="geometry" />
        </mxCell>
        <mxCell id="jr5bJzrvSQbN8pC3b32j-13" value="Si&lt;br&gt;" style="text;html=1;align=center;verticalAlign=middle;whiteSpace=wrap;rounded=1;" vertex="1" parent="dNxyNK7c78bLwvsdeMH5-20">
          <mxGeometry x="1560" y="220" width="60" height="30" as="geometry" />
        </mxCell>
        <mxCell id="saGvCJU_Vm6FPGzSCkna-1" value="" style="endArrow=none;dashed=1;html=1;dashPattern=1 3;strokeWidth=2;rounded=1;entryX=0.5;entryY=0;entryDx=0;entryDy=0;" edge="1" parent="dNxyNK7c78bLwvsdeMH5-20" target="saGvCJU_Vm6FPGzSCkna-2">
          <mxGeometry width="50" height="50" relative="1" as="geometry">
            <mxPoint x="830" y="10" as="sourcePoint" />
            <mxPoint x="1470" y="120" as="targetPoint" />
            <Array as="points">
              <mxPoint x="1390" y="10" />
            </Array>
          </mxGeometry>
        </mxCell>
        <mxCell id="saGvCJU_Vm6FPGzSCkna-2" value="no" style="text;html=1;align=center;verticalAlign=middle;whiteSpace=wrap;rounded=1;" vertex="1" parent="dNxyNK7c78bLwvsdeMH5-20">
          <mxGeometry x="1360" y="150" width="60" height="30" as="geometry" />
        </mxCell>
        <mxCell id="rgIxrNhpCXEa3y_r8Vri-3" value="" style="endArrow=classic;html=1;rounded=1;exitX=1;exitY=0.5;exitDx=0;exitDy=0;entryX=0;entryY=0.5;entryDx=0;entryDy=0;" edge="1" parent="dNxyNK7c78bLwvsdeMH5-20" source="5bx6YXuGVPjFUvGlG12I-37" target="5bx6YXuGVPjFUvGlG12I-38">
          <mxGeometry width="50" height="50" relative="1" as="geometry">
            <mxPoint x="920" y="180" as="sourcePoint" />
            <mxPoint x="970" y="130" as="targetPoint" />
          </mxGeometry>
        </mxCell>
        <mxCell id="rgIxrNhpCXEa3y_r8Vri-16" value="Notificado" style="rhombus;whiteSpace=wrap;html=1;rounded=1;" vertex="1" parent="dNxyNK7c78bLwvsdeMH5-20">
          <mxGeometry x="2170" y="70" width="80" height="80" as="geometry" />
        </mxCell>
        <mxCell id="rgIxrNhpCXEa3y_r8Vri-17" value="No" style="text;html=1;align=center;verticalAlign=middle;whiteSpace=wrap;rounded=0;" vertex="1" parent="dNxyNK7c78bLwvsdeMH5-20">
          <mxGeometry x="2110" y="60" width="60" height="30" as="geometry" />
        </mxCell>
        <mxCell id="rgIxrNhpCXEa3y_r8Vri-18" value="" style="endArrow=none;dashed=1;html=1;dashPattern=1 3;strokeWidth=2;rounded=1;entryX=1;entryY=0.5;entryDx=0;entryDy=0;" edge="1" parent="dNxyNK7c78bLwvsdeMH5-20" target="rgIxrNhpCXEa3y_r8Vri-16">
          <mxGeometry width="50" height="50" relative="1" as="geometry">
            <mxPoint x="2030" y="420" as="sourcePoint" />
            <mxPoint x="2340" y="140" as="targetPoint" />
            <Array as="points">
              <mxPoint x="2300" y="420" />
              <mxPoint x="2300" y="95" />
            </Array>
          </mxGeometry>
        </mxCell>
        <mxCell id="rgIxrNhpCXEa3y_r8Vri-21" value="" style="endArrow=none;dashed=1;html=1;dashPattern=1 3;strokeWidth=2;rounded=1;" edge="1" parent="dNxyNK7c78bLwvsdeMH5-20" target="rgIxrNhpCXEa3y_r8Vri-16">
          <mxGeometry width="50" height="50" relative="1" as="geometry">
            <mxPoint x="1380" y="10" as="sourcePoint" />
            <mxPoint x="1840" y="10" as="targetPoint" />
            <Array as="points">
              <mxPoint x="2090" y="20" />
              <mxPoint x="2090" y="95" />
            </Array>
          </mxGeometry>
        </mxCell>
        <mxCell id="wzfwDqplrifFK_FKTELK-4" value="" style="endArrow=classic;startArrow=classic;html=1;rounded=0;entryX=0.5;entryY=1;entryDx=0;entryDy=0;" edge="1" parent="dNxyNK7c78bLwvsdeMH5-20" source="rgIxrNhpCXEa3y_r8Vri-16" target="rgIxrNhpCXEa3y_r8Vri-19">
          <mxGeometry width="50" height="50" relative="1" as="geometry">
            <mxPoint x="2336" y="186" as="sourcePoint" />
            <mxPoint x="2460" y="140" as="targetPoint" />
            <Array as="points" />
          </mxGeometry>
        </mxCell>
        <mxCell id="rgIxrNhpCXEa3y_r8Vri-19" value="Si" style="text;html=1;align=center;verticalAlign=middle;whiteSpace=wrap;rounded=0;" vertex="1" parent="dNxyNK7c78bLwvsdeMH5-20">
          <mxGeometry x="2220" y="20" width="60" height="30" as="geometry" />
        </mxCell>
        <mxCell id="jr5bJzrvSQbN8pC3b32j-9" value="llena el formulario" style="rhombus;whiteSpace=wrap;html=1;rounded=1;" vertex="1" parent="dNxyNK7c78bLwvsdeMH5-20">
          <mxGeometry x="1450" y="125" width="80" height="80" as="geometry" />
        </mxCell>
        <mxCell id="jr5bJzrvSQbN8pC3b32j-12" value="" style="edgeStyle=orthogonalEdgeStyle;rounded=1;orthogonalLoop=1;jettySize=auto;html=1;" edge="1" parent="dNxyNK7c78bLwvsdeMH5-20" source="jr5bJzrvSQbN8pC3b32j-9" target="jr5bJzrvSQbN8pC3b32j-11">
          <mxGeometry relative="1" as="geometry" />
        </mxCell>
        <mxCell id="rgIxrNhpCXEa3y_r8Vri-1" value="" style="endArrow=classic;html=1;rounded=1;entryX=1;entryY=0.5;entryDx=0;entryDy=0;exitX=0;exitY=0.5;exitDx=0;exitDy=0;" edge="1" parent="dNxyNK7c78bLwvsdeMH5-20" source="jr5bJzrvSQbN8pC3b32j-9" target="saGvCJU_Vm6FPGzSCkna-2">
          <mxGeometry width="50" height="50" relative="1" as="geometry">
            <mxPoint x="1360" y="260" as="sourcePoint" />
            <mxPoint x="1410" y="210" as="targetPoint" />
            <Array as="points" />
          </mxGeometry>
        </mxCell>
        <mxCell id="wzfwDqplrifFK_FKTELK-3" value="" style="endArrow=classic;startArrow=classic;html=1;rounded=0;entryX=0.5;entryY=0;entryDx=0;entryDy=0;" edge="1" parent="dNxyNK7c78bLwvsdeMH5-19" source="rgIxrNhpCXEa3y_r8Vri-16" target="rgIxrNhpCXEa3y_r8Vri-14">
          <mxGeometry width="50" height="50" relative="1" as="geometry">
            <mxPoint x="2170" y="330" as="sourcePoint" />
            <mxPoint x="2220" y="280" as="targetPoint" />
          </mxGeometry>
        </mxCell>
        <mxCell id="dNxyNK7c78bLwvsdeMH5-21" value="Admin" style="swimlane;html=1;startSize=20;horizontal=0;rounded=1;arcSize=0;" vertex="1" parent="dNxyNK7c78bLwvsdeMH5-19">
          <mxGeometry x="20" y="240" width="2350" height="240" as="geometry" />
        </mxCell>
        <mxCell id="5bx6YXuGVPjFUvGlG12I-28" value="Confirmacion" style="rhombus;whiteSpace=wrap;html=1;rounded=1;" vertex="1" parent="dNxyNK7c78bLwvsdeMH5-21">
          <mxGeometry x="590" y="35" width="80" height="80" as="geometry" />
        </mxCell>
        <mxCell id="5bx6YXuGVPjFUvGlG12I-31" value="No" style="text;html=1;align=center;verticalAlign=middle;whiteSpace=wrap;rounded=1;" vertex="1" parent="dNxyNK7c78bLwvsdeMH5-21">
          <mxGeometry x="350" y="45" width="60" height="30" as="geometry" />
        </mxCell>
        <mxCell id="5bx6YXuGVPjFUvGlG12I-30" value="Si" style="text;html=1;align=center;verticalAlign=middle;whiteSpace=wrap;rounded=1;" vertex="1" parent="dNxyNK7c78bLwvsdeMH5-21">
          <mxGeometry x="730" y="60" width="60" height="30" as="geometry" />
        </mxCell>
        <mxCell id="5bx6YXuGVPjFUvGlG12I-33" value="" style="endArrow=classic;startArrow=classic;html=1;rounded=1;exitX=1;exitY=0.5;exitDx=0;exitDy=0;entryX=0;entryY=0.5;entryDx=0;entryDy=0;" edge="1" parent="dNxyNK7c78bLwvsdeMH5-21" source="5bx6YXuGVPjFUvGlG12I-28" target="5bx6YXuGVPjFUvGlG12I-30">
          <mxGeometry width="50" height="50" relative="1" as="geometry">
            <mxPoint x="850" y="100" as="sourcePoint" />
            <mxPoint x="900" y="50" as="targetPoint" />
          </mxGeometry>
        </mxCell>
        <mxCell id="5bx6YXuGVPjFUvGlG12I-35" value="Envia notificacion a casillero" style="rounded=1;whiteSpace=wrap;html=1;" vertex="1" parent="dNxyNK7c78bLwvsdeMH5-21">
          <mxGeometry x="880" y="52.5" width="110" height="45" as="geometry" />
        </mxCell>
        <mxCell id="5bx6YXuGVPjFUvGlG12I-36" value="" style="endArrow=classic;startArrow=classic;html=1;rounded=1;entryX=0;entryY=0.5;entryDx=0;entryDy=0;exitX=1;exitY=0.5;exitDx=0;exitDy=0;" edge="1" parent="dNxyNK7c78bLwvsdeMH5-21" source="5bx6YXuGVPjFUvGlG12I-30" target="5bx6YXuGVPjFUvGlG12I-35">
          <mxGeometry width="50" height="50" relative="1" as="geometry">
            <mxPoint x="840" y="20" as="sourcePoint" />
            <mxPoint x="890" y="-30" as="targetPoint" />
          </mxGeometry>
        </mxCell>
        <mxCell id="5bx6YXuGVPjFUvGlG12I-49" value="Revisa si&amp;nbsp;&lt;div&gt;hay&lt;/div&gt;&lt;div&gt;formularios&amp;nbsp;&lt;/div&gt;" style="rhombus;whiteSpace=wrap;html=1;rounded=1;" vertex="1" parent="dNxyNK7c78bLwvsdeMH5-21">
          <mxGeometry x="1187.5" y="30" width="105" height="90" as="geometry" />
        </mxCell>
        <mxCell id="5bx6YXuGVPjFUvGlG12I-51" value="Si&amp;nbsp;" style="text;html=1;align=center;verticalAlign=middle;whiteSpace=wrap;rounded=1;" vertex="1" parent="dNxyNK7c78bLwvsdeMH5-21">
          <mxGeometry x="1330" y="45" width="60" height="30" as="geometry" />
        </mxCell>
        <mxCell id="5bx6YXuGVPjFUvGlG12I-52" value="No" style="text;html=1;align=center;verticalAlign=middle;whiteSpace=wrap;rounded=1;" vertex="1" parent="dNxyNK7c78bLwvsdeMH5-21">
          <mxGeometry x="1127" y="60" width="60" height="30" as="geometry" />
        </mxCell>
        <mxCell id="KOkm-WaUwvO928opWfna-9" value="FIN" style="ellipse;whiteSpace=wrap;html=1;fillColor=#d5e8d4;strokeColor=#82b366;rounded=1;" vertex="1" parent="dNxyNK7c78bLwvsdeMH5-21">
          <mxGeometry x="90" y="60" width="40" height="35" as="geometry" />
        </mxCell>
        <mxCell id="5bx6YXuGVPjFUvGlG12I-54" value="" style="endArrow=none;dashed=1;html=1;dashPattern=1 3;strokeWidth=2;rounded=1;entryX=0.5;entryY=1;entryDx=0;entryDy=0;exitX=0.5;exitY=1;exitDx=0;exitDy=0;" edge="1" parent="dNxyNK7c78bLwvsdeMH5-21" source="5bx6YXuGVPjFUvGlG12I-52">
          <mxGeometry width="50" height="50" relative="1" as="geometry">
            <mxPoint x="1166" y="90" as="sourcePoint" />
            <mxPoint x="104" y="95" as="targetPoint" />
            <Array as="points">
              <mxPoint x="1157" y="120" />
              <mxPoint x="104" y="120" />
            </Array>
          </mxGeometry>
        </mxCell>
        <mxCell id="jr5bJzrvSQbN8pC3b32j-1" value="Manda a llenar formulario para actualizar datos&amp;nbsp;&amp;nbsp;" style="rounded=1;whiteSpace=wrap;html=1;" vertex="1" parent="dNxyNK7c78bLwvsdeMH5-21">
          <mxGeometry x="1430" y="45" width="120" height="60" as="geometry" />
        </mxCell>
        <mxCell id="zgewBPYgpBTmG7fg1Fpg-1" value="" style="endArrow=classic;startArrow=classic;html=1;rounded=1;exitX=1;exitY=0.5;exitDx=0;exitDy=0;entryX=0;entryY=0.5;entryDx=0;entryDy=0;" edge="1" parent="dNxyNK7c78bLwvsdeMH5-21" source="5bx6YXuGVPjFUvGlG12I-49" target="jr5bJzrvSQbN8pC3b32j-1">
          <mxGeometry width="50" height="50" relative="1" as="geometry">
            <mxPoint x="1250" y="210" as="sourcePoint" />
            <mxPoint x="1300" y="160" as="targetPoint" />
          </mxGeometry>
        </mxCell>
        <mxCell id="rgIxrNhpCXEa3y_r8Vri-2" value="Actualiza datos correctamente" style="rhombus;whiteSpace=wrap;html=1;rounded=1;" vertex="1" parent="dNxyNK7c78bLwvsdeMH5-21">
          <mxGeometry x="1770" y="23.75" width="100" height="102.5" as="geometry" />
        </mxCell>
        <mxCell id="rgIxrNhpCXEa3y_r8Vri-5" value="" style="endArrow=none;dashed=1;html=1;dashPattern=1 3;strokeWidth=2;rounded=1;entryX=0.5;entryY=1;entryDx=0;entryDy=0;" edge="1" parent="dNxyNK7c78bLwvsdeMH5-21" target="rgIxrNhpCXEa3y_r8Vri-2">
          <mxGeometry width="50" height="50" relative="1" as="geometry">
            <mxPoint x="1160" y="120" as="sourcePoint" />
            <mxPoint x="2040" y="190" as="targetPoint" />
            <Array as="points">
              <mxPoint x="1160" y="190" />
              <mxPoint x="1820" y="190" />
            </Array>
          </mxGeometry>
        </mxCell>
        <mxCell id="rgIxrNhpCXEa3y_r8Vri-6" value="No" style="text;html=1;align=center;verticalAlign=middle;whiteSpace=wrap;rounded=1;" vertex="1" parent="dNxyNK7c78bLwvsdeMH5-21">
          <mxGeometry x="1760" y="157" width="60" height="30" as="geometry" />
        </mxCell>
        <mxCell id="rgIxrNhpCXEa3y_r8Vri-7" value="Notifica" style="rhombus;whiteSpace=wrap;html=1;rounded=1;" vertex="1" parent="dNxyNK7c78bLwvsdeMH5-21">
          <mxGeometry x="1990" y="35" width="80" height="80" as="geometry" />
        </mxCell>
        <mxCell id="rgIxrNhpCXEa3y_r8Vri-9" value="Si" style="text;html=1;align=center;verticalAlign=middle;whiteSpace=wrap;rounded=0;" vertex="1" parent="dNxyNK7c78bLwvsdeMH5-21">
          <mxGeometry x="1900" y="45" width="60" height="30" as="geometry" />
        </mxCell>
        <mxCell id="rgIxrNhpCXEa3y_r8Vri-10" value="" style="endArrow=classic;html=1;rounded=1;exitX=1;exitY=0.5;exitDx=0;exitDy=0;" edge="1" parent="dNxyNK7c78bLwvsdeMH5-21" source="rgIxrNhpCXEa3y_r8Vri-2" target="rgIxrNhpCXEa3y_r8Vri-7">
          <mxGeometry width="50" height="50" relative="1" as="geometry">
            <mxPoint x="2120" y="140" as="sourcePoint" />
            <mxPoint x="2170" y="90" as="targetPoint" />
          </mxGeometry>
        </mxCell>
        <mxCell id="rgIxrNhpCXEa3y_r8Vri-11" value="No" style="text;html=1;align=center;verticalAlign=middle;whiteSpace=wrap;rounded=0;" vertex="1" parent="dNxyNK7c78bLwvsdeMH5-21">
          <mxGeometry x="1940" y="140" width="60" height="30" as="geometry" />
        </mxCell>
        <mxCell id="rgIxrNhpCXEa3y_r8Vri-12" value="" style="endArrow=none;dashed=1;html=1;dashPattern=1 3;strokeWidth=2;rounded=1;entryX=0.5;entryY=1;entryDx=0;entryDy=0;exitX=1;exitY=1;exitDx=0;exitDy=0;" edge="1" parent="dNxyNK7c78bLwvsdeMH5-21">
          <mxGeometry width="50" height="50" relative="1" as="geometry">
            <mxPoint x="1820" y="190" as="sourcePoint" />
            <mxPoint x="2030" y="116" as="targetPoint" />
            <Array as="points">
              <mxPoint x="2030" y="190" />
            </Array>
          </mxGeometry>
        </mxCell>
        <mxCell id="rgIxrNhpCXEa3y_r8Vri-14" value="Deja confirmaciÃ³n en porterÃ­a" style="rounded=1;whiteSpace=wrap;html=1;" vertex="1" parent="dNxyNK7c78bLwvsdeMH5-21">
          <mxGeometry x="2150" y="45" width="120" height="60" as="geometry" />
        </mxCell>
        <mxCell id="rgIxrNhpCXEa3y_r8Vri-15" value="" style="endArrow=classic;html=1;rounded=1;" edge="1" parent="dNxyNK7c78bLwvsdeMH5-21" source="rgIxrNhpCXEa3y_r8Vri-7" target="rgIxrNhpCXEa3y_r8Vri-14">
          <mxGeometry width="50" height="50" relative="1" as="geometry">
            <mxPoint x="2090" y="110" as="sourcePoint" />
            <mxPoint x="2140" y="60" as="targetPoint" />
          </mxGeometry>
        </mxCell>
        <mxCell id="LFvqNWQkenKYKGKkeFmm-1" value="" style="endArrow=classic;html=1;rounded=0;exitX=0;exitY=0.5;exitDx=0;exitDy=0;" edge="1" parent="dNxyNK7c78bLwvsdeMH5-21" source="5bx6YXuGVPjFUvGlG12I-28" target="KOkm-WaUwvO928opWfna-9">
          <mxGeometry width="50" height="50" relative="1" as="geometry">
            <mxPoint x="480" y="30" as="sourcePoint" />
            <mxPoint x="380" y="30" as="targetPoint" />
            <Array as="points" />
          </mxGeometry>
        </mxCell>
        <mxCell id="jr5bJzrvSQbN8pC3b32j-10" value="" style="edgeStyle=orthogonalEdgeStyle;rounded=1;orthogonalLoop=1;jettySize=auto;html=1;" edge="1" parent="dNxyNK7c78bLwvsdeMH5-19" source="jr5bJzrvSQbN8pC3b32j-1" target="jr5bJzrvSQbN8pC3b32j-9">
          <mxGeometry relative="1" as="geometry" />
        </mxCell>
      </root>
    </mxGraphModel>
  </diagram>
</mxfile>
